<?xml version="1.0" encoding="iso-8859-1"?>
<!-- Uploaded to: SVG Repo, www.svgrepo.com, Generator: SVG Repo Mixer Tools -->
<!DOCTYPE svg PUBLIC "-//W3C//DTD SVG 1.1//EN" "http://www.w3.org/Graphics/SVG/1.1/DTD/svg11.dtd">
<svg fill="#000000" height="800px" width="800px" version="1.1" id="Capa_1" xmlns="http://www.w3.org/2000/svg" xmlns:xlink="http://www.w3.org/1999/xlink" 
	 viewBox="0 0 475.801 475.801" xml:space="preserve">
<path d="M307.13,150.16l-5.195-2.597c2.915-3.403,4.687-7.811,4.687-12.632V112.93c0-10.729-8.729-19.457-19.458-19.457h-22.418
	l-12.24-87.018C251.985,2.753,248.817,0,245.079,0h-14.357c-3.738,0-6.906,2.753-7.427,6.455l-12.24,87.018h-22.418
	c-10.729,0-19.458,8.729-19.458,19.457v22.001c0,4.821,1.772,9.229,4.687,12.632l-5.195,2.598
	c-9.126,4.563-14.796,13.737-14.796,23.941v282.241c0,10.729,8.729,19.458,19.457,19.458H302.47
	c10.729,0,19.457-8.729,19.457-19.458v-282.24C321.927,163.897,316.257,154.723,307.13,150.16z M184.179,112.93
	c0-2.458,2-4.457,4.458-4.457h43.376c4.143,0,7.5-3.357,7.5-7.5s-3.357-7.5-7.5-7.5h-5.811L237.24,15h1.32l12.24,87.018
	c0.011,0.075,0.029,0.148,0.042,0.222c0.021,0.124,0.042,0.248,0.07,0.37c0.025,0.113,0.056,0.223,0.086,0.334
	c0.032,0.117,0.063,0.235,0.1,0.351c0.039,0.121,0.085,0.238,0.13,0.355c0.038,0.1,0.073,0.2,0.115,0.298
	c0.061,0.141,0.13,0.277,0.199,0.413c0.036,0.07,0.067,0.143,0.105,0.211c0.226,0.412,0.488,0.799,0.782,1.157
	c0.035,0.042,0.073,0.081,0.109,0.123c0.114,0.132,0.229,0.263,0.352,0.387c0.062,0.063,0.129,0.121,0.193,0.181
	c0.102,0.096,0.203,0.192,0.31,0.282c0.08,0.067,0.163,0.13,0.245,0.194c0.098,0.076,0.196,0.151,0.297,0.222
	c0.092,0.064,0.186,0.124,0.281,0.184c0.099,0.063,0.199,0.125,0.301,0.183c0.099,0.057,0.2,0.11,0.302,0.162
	c0.106,0.054,0.213,0.105,0.322,0.155c0.101,0.045,0.202,0.09,0.305,0.131c0.119,0.048,0.24,0.091,0.362,0.132
	c0.097,0.033,0.193,0.067,0.292,0.096c0.141,0.042,0.284,0.077,0.428,0.11c0.083,0.019,0.165,0.041,0.25,0.058
	c0.185,0.037,0.373,0.063,0.562,0.086c0.048,0.005,0.094,0.015,0.142,0.02c0.243,0.024,0.489,0.039,0.737,0.039
	c0.005,0,0.009-0.001,0.014-0.001h28.932c2.458,0,4.458,1.999,4.458,4.457v22.001c0,2.458-2,4.458-4.458,4.458h-3.348h-91.833
	h-3.347c-2.458,0-4.458-2-4.458-4.458V112.93z M306.927,456.343c0,2.458-1.999,4.458-4.457,4.458H173.331
	c-2.458,0-4.457-2-4.457-4.458V174.102c0-4.486,2.492-8.52,6.505-10.525l18.375-9.188h88.292l18.376,9.188
	c4.013,2.006,6.505,6.04,6.505,10.526V456.343z M297.415,191.164v153.054c0,4.143-3.357,7.5-7.5,7.5s-7.5-3.357-7.5-7.5V191.164
	c0-4.143,3.357-7.5,7.5-7.5S297.415,187.021,297.415,191.164z M297.415,374.828v15.306c0,4.143-3.357,7.5-7.5,7.5
	s-7.5-3.357-7.5-7.5v-15.306c0-4.143,3.357-7.5,7.5-7.5S297.415,370.686,297.415,374.828z"/>
</svg>